<mxfile host="Electron" modified="2023-05-02T14:57:27.548Z" agent="Mozilla/5.0 (Windows NT 10.0; Win64; x64) AppleWebKit/537.36 (KHTML, like Gecko) draw.io/21.1.2 Chrome/106.0.5249.199 Electron/21.4.3 Safari/537.36" etag="fusT-Rgj2tBliA96hqb6" version="21.1.2" type="device">
  <diagram name="Página-1" id="SOFcRlehAPpINOt2TTfs">
    <mxGraphModel dx="864" dy="516" grid="1" gridSize="10" guides="1" tooltips="1" connect="1" arrows="1" fold="1" page="1" pageScale="1" pageWidth="827" pageHeight="1169" math="0" shadow="0">
      <root>
        <mxCell id="0" />
        <mxCell id="1" parent="0" />
        <mxCell id="iTl45zRu5jCz-8oioT0B-1" value="Situação Orçamento" style="shape=umlFrame;whiteSpace=wrap;html=1;pointerEvents=0;width=80;height=30;" vertex="1" parent="1">
          <mxGeometry x="40" y="40" width="680" height="240" as="geometry" />
        </mxCell>
        <mxCell id="iTl45zRu5jCz-8oioT0B-6" style="edgeStyle=orthogonalEdgeStyle;rounded=0;orthogonalLoop=1;jettySize=auto;html=1;entryX=0;entryY=0.5;entryDx=0;entryDy=0;" edge="1" parent="1" source="iTl45zRu5jCz-8oioT0B-2" target="iTl45zRu5jCz-8oioT0B-5">
          <mxGeometry relative="1" as="geometry" />
        </mxCell>
        <mxCell id="iTl45zRu5jCz-8oioT0B-23" style="edgeStyle=orthogonalEdgeStyle;rounded=0;orthogonalLoop=1;jettySize=auto;html=1;entryX=0;entryY=0.5;entryDx=0;entryDy=0;exitX=0.5;exitY=1;exitDx=0;exitDy=0;" edge="1" parent="1" source="iTl45zRu5jCz-8oioT0B-2" target="iTl45zRu5jCz-8oioT0B-21">
          <mxGeometry relative="1" as="geometry" />
        </mxCell>
        <mxCell id="iTl45zRu5jCz-8oioT0B-2" value="" style="ellipse;html=1;shape=startState;fillColor=#000000;strokeColor=#ff0000;" vertex="1" parent="1">
          <mxGeometry x="80" y="130" width="30" height="30" as="geometry" />
        </mxCell>
        <mxCell id="iTl45zRu5jCz-8oioT0B-9" style="edgeStyle=orthogonalEdgeStyle;rounded=0;orthogonalLoop=1;jettySize=auto;html=1;entryX=0;entryY=0.5;entryDx=0;entryDy=0;" edge="1" parent="1" source="iTl45zRu5jCz-8oioT0B-5" target="iTl45zRu5jCz-8oioT0B-8">
          <mxGeometry relative="1" as="geometry" />
        </mxCell>
        <mxCell id="iTl45zRu5jCz-8oioT0B-25" style="edgeStyle=orthogonalEdgeStyle;rounded=0;orthogonalLoop=1;jettySize=auto;html=1;entryX=1;entryY=0.5;entryDx=0;entryDy=0;exitX=0.5;exitY=1;exitDx=0;exitDy=0;" edge="1" parent="1" source="iTl45zRu5jCz-8oioT0B-5" target="iTl45zRu5jCz-8oioT0B-21">
          <mxGeometry relative="1" as="geometry" />
        </mxCell>
        <mxCell id="iTl45zRu5jCz-8oioT0B-5" value="Finalizado" style="rounded=1;whiteSpace=wrap;html=1;" vertex="1" parent="1">
          <mxGeometry x="250" y="115" width="120" height="60" as="geometry" />
        </mxCell>
        <mxCell id="iTl45zRu5jCz-8oioT0B-7" value="Finalizar" style="text;html=1;align=center;verticalAlign=middle;resizable=0;points=[];autosize=1;strokeColor=none;fillColor=none;" vertex="1" parent="1">
          <mxGeometry x="150" y="115" width="70" height="30" as="geometry" />
        </mxCell>
        <mxCell id="iTl45zRu5jCz-8oioT0B-11" style="edgeStyle=orthogonalEdgeStyle;rounded=0;orthogonalLoop=1;jettySize=auto;html=1;entryX=0;entryY=0.5;entryDx=0;entryDy=0;" edge="1" parent="1" source="iTl45zRu5jCz-8oioT0B-8" target="iTl45zRu5jCz-8oioT0B-15">
          <mxGeometry relative="1" as="geometry">
            <mxPoint x="630" y="145" as="targetPoint" />
          </mxGeometry>
        </mxCell>
        <mxCell id="iTl45zRu5jCz-8oioT0B-19" style="edgeStyle=orthogonalEdgeStyle;rounded=0;orthogonalLoop=1;jettySize=auto;html=1;entryX=0;entryY=0.5;entryDx=0;entryDy=0;exitX=0.5;exitY=1;exitDx=0;exitDy=0;" edge="1" parent="1" source="iTl45zRu5jCz-8oioT0B-8" target="iTl45zRu5jCz-8oioT0B-17">
          <mxGeometry relative="1" as="geometry" />
        </mxCell>
        <mxCell id="iTl45zRu5jCz-8oioT0B-8" value="Em Análise" style="rounded=1;whiteSpace=wrap;html=1;" vertex="1" parent="1">
          <mxGeometry x="440" y="115" width="120" height="60" as="geometry" />
        </mxCell>
        <mxCell id="iTl45zRu5jCz-8oioT0B-12" value="Analisar" style="text;html=1;align=center;verticalAlign=middle;resizable=0;points=[];autosize=1;strokeColor=none;fillColor=none;" vertex="1" parent="1">
          <mxGeometry x="370" y="115" width="70" height="30" as="geometry" />
        </mxCell>
        <mxCell id="iTl45zRu5jCz-8oioT0B-13" value="Aprovar" style="text;html=1;align=center;verticalAlign=middle;resizable=0;points=[];autosize=1;strokeColor=none;fillColor=none;" vertex="1" parent="1">
          <mxGeometry x="570" y="115" width="70" height="30" as="geometry" />
        </mxCell>
        <mxCell id="iTl45zRu5jCz-8oioT0B-14" value="Em Elaboração" style="text;html=1;align=center;verticalAlign=middle;resizable=0;points=[];autosize=1;strokeColor=none;fillColor=none;" vertex="1" parent="1">
          <mxGeometry x="40" y="100" width="110" height="30" as="geometry" />
        </mxCell>
        <mxCell id="iTl45zRu5jCz-8oioT0B-15" value="" style="ellipse;html=1;shape=endState;fillColor=#000000;strokeColor=#ff0000;" vertex="1" parent="1">
          <mxGeometry x="660" y="130" width="30" height="30" as="geometry" />
        </mxCell>
        <mxCell id="iTl45zRu5jCz-8oioT0B-16" value="Aprovado" style="text;html=1;align=center;verticalAlign=middle;resizable=0;points=[];autosize=1;strokeColor=none;fillColor=none;" vertex="1" parent="1">
          <mxGeometry x="640" y="100" width="70" height="30" as="geometry" />
        </mxCell>
        <mxCell id="iTl45zRu5jCz-8oioT0B-17" value="" style="ellipse;html=1;shape=endState;fillColor=#000000;strokeColor=#ff0000;" vertex="1" parent="1">
          <mxGeometry x="660" y="235" width="30" height="30" as="geometry" />
        </mxCell>
        <mxCell id="iTl45zRu5jCz-8oioT0B-18" value="Reprovado" style="text;html=1;align=center;verticalAlign=middle;resizable=0;points=[];autosize=1;strokeColor=none;fillColor=none;" vertex="1" parent="1">
          <mxGeometry x="635" y="205" width="80" height="30" as="geometry" />
        </mxCell>
        <mxCell id="iTl45zRu5jCz-8oioT0B-20" value="Reprovar" style="text;html=1;align=center;verticalAlign=middle;resizable=0;points=[];autosize=1;strokeColor=none;fillColor=none;" vertex="1" parent="1">
          <mxGeometry x="540" y="220" width="70" height="30" as="geometry" />
        </mxCell>
        <mxCell id="iTl45zRu5jCz-8oioT0B-21" value="" style="ellipse;html=1;shape=endState;fillColor=#000000;strokeColor=#ff0000;" vertex="1" parent="1">
          <mxGeometry x="190" y="235" width="30" height="30" as="geometry" />
        </mxCell>
        <mxCell id="iTl45zRu5jCz-8oioT0B-22" value="Encerrado" style="text;html=1;align=center;verticalAlign=middle;resizable=0;points=[];autosize=1;strokeColor=none;fillColor=none;" vertex="1" parent="1">
          <mxGeometry x="165" y="205" width="80" height="30" as="geometry" />
        </mxCell>
        <mxCell id="iTl45zRu5jCz-8oioT0B-24" value="Encerrar" style="text;html=1;align=center;verticalAlign=middle;resizable=0;points=[];autosize=1;strokeColor=none;fillColor=none;" vertex="1" parent="1">
          <mxGeometry x="95" y="220" width="70" height="30" as="geometry" />
        </mxCell>
        <mxCell id="iTl45zRu5jCz-8oioT0B-26" value="Encerrar" style="text;html=1;align=center;verticalAlign=middle;resizable=0;points=[];autosize=1;strokeColor=none;fillColor=none;" vertex="1" parent="1">
          <mxGeometry x="240" y="220" width="70" height="30" as="geometry" />
        </mxCell>
      </root>
    </mxGraphModel>
  </diagram>
</mxfile>
